Coordinates
version=1
nRows=7
nColumns=40
inDegrees=yes

Units are S.I. units (second, meters, Newtons, ...)
If the header above contains a line with 'inDegrees', this indicates whether rotational values are in degrees (yes) or radians (no).

endheader
time	pelvis_tilt	pelvis_list	pelvis_rotation	pelvis_tx	pelvis_ty	pelvis_tz	hip_flexion_r	hip_adduction_r	hip_rotation_r	knee_angle_r	knee_angle_r_beta	ankle_angle_r	subtalar_angle_r	mtp_angle_r	hip_flexion_l	hip_adduction_l	hip_rotation_l	knee_angle_l	knee_angle_l_beta	ankle_angle_l	subtalar_angle_l	mtp_angle_l	lumbar_extension	lumbar_bending	lumbar_rotation	arm_flex_r	arm_add_r	arm_rot_r	elbow_flex_r	pro_sup_r	wrist_flex_r	wrist_dev_r	arm_flex_l	arm_add_l	arm_rot_l	elbow_flex_l	pro_sup_l	wrist_flex_l	wrist_dev_l
      4.07500000	    -33.21266310	      4.84138462	     -4.14509695	     -0.36743832	      0.75718640	     -1.14822253	     17.26323511	     -4.95551348	     14.33171291	     72.13009666	      1.25890768	    -13.51573807	      0.00000000	      0.00000000	     85.72977554	      2.95272907	     -4.41425755	     87.81286788	      1.53262367	     26.19634131	      0.00000000	      0.00000000	     -9.73998644	     -9.94530458	      3.56643176	     89.97274193	      0.10410478	      8.81489131	     53.75761769	     61.60340317	      0.00000000	      0.00000000	     89.97615096	     -4.77237299	     11.58971352	     55.96719807	     44.45358733	      0.00000000	      0.00000000
      4.08000000	    -33.18078761	      4.96314554	     -3.94662106	     -0.36725980	      0.75666197	     -1.14873016	     17.21994481	     -5.21793186	     14.11601923	     72.09207102	      1.25824400	    -13.56340644	      0.00000000	      0.00000000	     85.73543283	      3.15872900	     -4.58366413	     87.85381408	      1.53333832	     26.23266762	      0.00000000	      0.00000000	     -9.84961326	    -10.03854663	      3.25655556	     89.97275795	      0.19141570	      8.85704267	     53.81004350	     60.06222679	      0.00000000	      0.00000000	     89.97624282	     -4.79234970	     11.55659255	     56.00701908	     44.43587469	      0.00000000	      0.00000000
      4.08500000	    -33.22419012	      4.94981390	     -3.87501093	     -0.36739142	      0.75583672	     -1.14881233	     17.24277703	     -5.16552735	     14.15196875	     72.17596654	      1.25970826	    -12.75198254	      0.00000000	      0.00000000	     85.90852039	      3.20175097	     -4.53848298	     88.00096806	      1.53590664	     25.64045316	      0.00000000	      0.00000000	     -9.83842751	    -10.01363701	      3.13337996	     89.97289316	      0.30721871	      8.84190705	     53.77922412	     58.20230987	      0.00000000	      0.00000000	     89.97632384	     -4.77175620	     11.41510469	     55.90146337	     44.41798257	      0.00000000	      0.00000000
      4.09000000	    -33.48147020	      4.75823207	     -3.65728217	     -0.36764763	      0.75493287	     -1.14897945	     17.54313462	     -4.93472022	     13.94876364	     72.16427493	      1.25950420	    -13.58163070	      0.00000000	      0.00000000	     86.20495404	      3.24903795	     -4.47504614	     88.04353014	      1.53664949	     26.20205407	      0.00000000	      0.00000000	     -9.68469492	     -9.79260926	      3.00700197	     89.97284863	      0.11052850	      9.03186539	     54.05604359	     57.17491673	      0.00000000	      0.00000000	     89.97622913	     -4.76804693	     11.48484340	     56.02830312	     44.40077835	      0.00000000	      0.00000000
      4.09500000	    -33.47556898	      4.74224254	     -3.55540543	     -0.36751106	      0.75441085	     -1.14914696	     17.52137133	     -4.93550590	     13.87142666	     72.09487554	      1.25829295	    -13.34273796	      0.00000000	      0.00000000	     86.24630106	      3.30460173	     -4.51670825	     88.14864574	      1.53848410	     26.15784753	      0.00000000	      0.00000000	     -9.74930579	     -9.80029389	      2.94965777	     89.97293940	      0.00721267	      7.37754910	     53.41877704	     75.14430424	      0.00000000	      0.00000000	     89.97625241	     -4.60601934	     11.42753983	     56.03744720	     43.73764398	      0.00000000	      0.00000000
      4.10000000	    -33.40510279	      4.92411320	     -3.49046575	     -0.36729946	      0.75404428	     -1.14937793	     17.45082662	     -5.10882460	     13.93199897	     72.11369895	      1.25862148	    -13.38380014	      0.00000000	      0.00000000	     86.19035472	      3.36230078	     -4.79273650	     88.18298851	      1.53908349	     26.21347408	      0.00000000	      0.00000000	     -9.87765991	     -9.99231687	      2.81416554	     89.97302936	      0.03990010	      7.62790344	     53.51080861	     72.21138324	      0.00000000	      0.00000000	     89.97630489	     -4.60464141	     11.45175108	     56.05108179	     43.80867673	      0.00000000	      0.00000000
      4.10500000	    -33.80871750	      4.56829377	     -3.33771260	     -0.36785518	      0.75253150	     -1.14946377	     17.88834306	     -4.65187115	     13.81387699	     72.21700275	      1.26042447	    -13.30916836	      0.00000000	      0.00000000	     86.76328327	      3.35622212	     -4.44575694	     88.38280961	      1.54257103	     26.19240173	      0.00000000	      0.00000000	     -9.50186548	     -9.57477024	      2.78075260	     89.97302022	     -0.04739732	      7.97775462	     53.63606706	     68.79819654	      0.00000000	      0.00000000	     89.97623627	     -4.58924236	     11.43111607	     56.01747801	     43.86983740	      0.00000000	      0.00000000
